<mxfile host="app.diagrams.net" agent="Mozilla/5.0 (Macintosh; Intel Mac OS X 10_15_7) AppleWebKit/537.36 (KHTML, like Gecko) Chrome/138.0.0.0 Safari/537.36" version="27.1.6">
  <diagram name="Page-1" id="FEvzfGTT35sY46FLsce7">
    <mxGraphModel dx="1202" dy="1258" grid="1" gridSize="10" guides="1" tooltips="1" connect="1" arrows="1" fold="1" page="1" pageScale="1" pageWidth="850" pageHeight="1100" math="0" shadow="0">
      <root>
        <mxCell id="0" />
        <mxCell id="1" parent="0" />
        <mxCell id="l-mb93l43rivfY--omWl-1" value="" style="rounded=0;whiteSpace=wrap;html=1;" parent="1" vertex="1">
          <mxGeometry x="910" y="410" width="248" height="360" as="geometry" />
        </mxCell>
        <mxCell id="l-mb93l43rivfY--omWl-2" value="" style="rounded=0;whiteSpace=wrap;html=1;" parent="1" vertex="1">
          <mxGeometry x="920" y="420" width="248" height="360" as="geometry" />
        </mxCell>
        <mxCell id="l-mb93l43rivfY--omWl-3" value="" style="rounded=0;whiteSpace=wrap;html=1;" parent="1" vertex="1">
          <mxGeometry x="932" y="430" width="248" height="360" as="geometry" />
        </mxCell>
        <mxCell id="l-mb93l43rivfY--omWl-5" value="&lt;font style=&quot;font-size: 16px;&quot;&gt;&lt;span&gt;Event Sources&lt;/span&gt;&lt;/font&gt;" style="text;html=1;align=center;verticalAlign=middle;resizable=0;points=[];autosize=1;strokeColor=none;fillColor=none;fontStyle=1" parent="1" vertex="1">
          <mxGeometry x="1028" y="477" width="130" height="30" as="geometry" />
        </mxCell>
        <mxCell id="l-mb93l43rivfY--omWl-6" value="" style="sketch=0;outlineConnect=0;fontColor=#232F3E;gradientColor=none;fillColor=#E7157B;strokeColor=none;dashed=0;verticalLabelPosition=bottom;verticalAlign=top;align=center;html=1;fontSize=12;fontStyle=0;aspect=fixed;pointerEvents=1;shape=mxgraph.aws4.event;" parent="1" vertex="1">
          <mxGeometry x="1060.5" y="550" width="49" height="49" as="geometry" />
        </mxCell>
        <mxCell id="l-mb93l43rivfY--omWl-7" value="" style="sketch=0;outlineConnect=0;fontColor=#232F3E;gradientColor=none;fillColor=#E7157B;strokeColor=none;dashed=0;verticalLabelPosition=bottom;verticalAlign=top;align=center;html=1;fontSize=12;fontStyle=0;aspect=fixed;pointerEvents=1;shape=mxgraph.aws4.event;" parent="1" vertex="1">
          <mxGeometry x="976" y="620" width="49" height="49" as="geometry" />
        </mxCell>
        <mxCell id="l-mb93l43rivfY--omWl-8" value="" style="sketch=0;outlineConnect=0;fontColor=#232F3E;gradientColor=none;fillColor=#E7157B;strokeColor=none;dashed=0;verticalLabelPosition=bottom;verticalAlign=top;align=center;html=1;fontSize=12;fontStyle=0;aspect=fixed;pointerEvents=1;shape=mxgraph.aws4.event;" parent="1" vertex="1">
          <mxGeometry x="1060.5" y="690" width="49" height="49" as="geometry" />
        </mxCell>
        <mxCell id="l-mb93l43rivfY--omWl-9" value="" style="rounded=0;whiteSpace=wrap;html=1;" parent="1" vertex="1">
          <mxGeometry x="1200" y="310" width="970" height="480" as="geometry" />
        </mxCell>
        <mxCell id="l-mb93l43rivfY--omWl-10" value="" style="sketch=0;points=[[0,0,0],[0.25,0,0],[0.5,0,0],[0.75,0,0],[1,0,0],[0,1,0],[0.25,1,0],[0.5,1,0],[0.75,1,0],[1,1,0],[0,0.25,0],[0,0.5,0],[0,0.75,0],[1,0.25,0],[1,0.5,0],[1,0.75,0]];outlineConnect=0;fontColor=#232F3E;fillColor=#E7157B;strokeColor=#ffffff;dashed=0;verticalLabelPosition=bottom;verticalAlign=top;align=center;html=1;fontSize=12;fontStyle=0;aspect=fixed;shape=mxgraph.aws4.resourceIcon;resIcon=mxgraph.aws4.eventbridge;" parent="1" vertex="1">
          <mxGeometry x="1216.25" y="324" width="78" height="78" as="geometry" />
        </mxCell>
        <mxCell id="l-mb93l43rivfY--omWl-11" value="&lt;font style=&quot;font-size: 16px;&quot;&gt;&lt;span&gt;EventBridge&lt;/span&gt;&lt;/font&gt;" style="text;html=1;align=center;verticalAlign=middle;resizable=0;points=[];autosize=1;strokeColor=none;fillColor=none;fontStyle=1" parent="1" vertex="1">
          <mxGeometry x="1325" y="348" width="110" height="30" as="geometry" />
        </mxCell>
        <mxCell id="l-mb93l43rivfY--omWl-12" value="" style="whiteSpace=wrap;html=1;" parent="1" vertex="1">
          <mxGeometry x="1230" y="480" width="900" height="280" as="geometry" />
        </mxCell>
        <mxCell id="l-mb93l43rivfY--omWl-13" value="" style="whiteSpace=wrap;html=1;" parent="1" vertex="1">
          <mxGeometry x="1240" y="490" width="900" height="280" as="geometry" />
        </mxCell>
        <mxCell id="l-mb93l43rivfY--omWl-14" value="" style="whiteSpace=wrap;html=1;" parent="1" vertex="1">
          <mxGeometry x="1250" y="500" width="900" height="280" as="geometry" />
        </mxCell>
        <mxCell id="l-mb93l43rivfY--omWl-15" value="" style="sketch=0;outlineConnect=0;fontColor=#232F3E;gradientColor=none;fillColor=#E7157B;strokeColor=none;dashed=0;verticalLabelPosition=bottom;verticalAlign=top;align=center;html=1;fontSize=12;fontStyle=0;aspect=fixed;pointerEvents=1;shape=mxgraph.aws4.eventbridge_default_event_bus_resource;" parent="1" vertex="1">
          <mxGeometry x="1230" y="420" width="78" height="53" as="geometry" />
        </mxCell>
        <mxCell id="l-mb93l43rivfY--omWl-16" value="Event Buses" style="text;html=1;align=center;verticalAlign=middle;resizable=0;points=[];autosize=1;strokeColor=none;fillColor=none;fontStyle=1" parent="1" vertex="1">
          <mxGeometry x="1320" y="431.5" width="90" height="30" as="geometry" />
        </mxCell>
        <mxCell id="l-mb93l43rivfY--omWl-17" style="edgeStyle=orthogonalEdgeStyle;rounded=0;orthogonalLoop=1;jettySize=auto;html=1;exitX=0.444;exitY=1.005;exitDx=0;exitDy=0;exitPerimeter=0;" parent="1" source="l-mb93l43rivfY--omWl-19" target="l-mb93l43rivfY--omWl-28" edge="1">
          <mxGeometry relative="1" as="geometry">
            <Array as="points">
              <mxPoint x="1620" y="659" />
              <mxPoint x="1620" y="692" />
            </Array>
          </mxGeometry>
        </mxCell>
        <mxCell id="l-mb93l43rivfY--omWl-18" style="edgeStyle=orthogonalEdgeStyle;rounded=0;orthogonalLoop=1;jettySize=auto;html=1;" parent="1" source="l-mb93l43rivfY--omWl-19" target="l-mb93l43rivfY--omWl-55" edge="1">
          <mxGeometry relative="1" as="geometry">
            <Array as="points">
              <mxPoint x="1620" y="630" />
              <mxPoint x="1620" y="606" />
            </Array>
          </mxGeometry>
        </mxCell>
        <mxCell id="l-mb93l43rivfY--omWl-19" value="" style="shape=image;verticalLabelPosition=bottom;labelBackgroundColor=default;verticalAlign=top;aspect=fixed;imageAspect=0;editableCssRules=.*;image=data:image/svg+xml,PHN2ZyB4bWxuczp4bGluaz0iaHR0cDovL3d3dy53My5vcmcvMTk5OS94bGluayIgeG1sbnM9Imh0dHA6Ly93d3cudzMub3JnLzIwMDAvc3ZnIiBoZWlnaHQ9IjE2Ni42NjY2ODY1MzQ4ODE2IiB3aWR0aD0iMTYyLjQ5OTk4ODA3OTA3MTA0IiB2ZXJzaW9uPSIxLjEiIHZpZXdCb3g9Ijk1Ljk5OTk5MjM3MDYwNTQ3IDg1LjMzMzMzNTg3NjQ2NDg0IDgzMS45OTk5Mzg5NjQ4NDM4IDg1My4zMzM0MzUwNTg1OTM4IiBjbGFzcz0iaWNvbiI+PHBhdGggZmlsbD0iI2Q0MjM3YSIgZD0iTTQwNS4zMzMzMzMgOTM4LjY2NjY2N2EyMS4zMzMzMzMgMjEuMzMzMzMzIDAgMCAxLTIxLjMzMzMzMy0yMS4zMzMzMzRWNTQwLjQ0NjY2N0wxMDYuNjY2NjY3IDE3MC42NjY2NjdhNTMuMzMzMzMzIDUzLjMzMzMzMyAwIDAgMSA0Mi42NjY2NjYtODUuMzMzMzM0aDcyNS4zMzMzMzRhNTMuMzMzMzMzIDUzLjMzMzMzMyAwIDAgMSA0Mi42NjY2NjYgODUuMzMzMzM0TDY0MCA1NDAuNDQ2NjY3VjgzMmEyMS4zMzMzMzMgMjEuMzMzMzMzIDAgMCAxLTEzLjQxMzMzMyAxOS44MDY2NjdsLTIxMy4zMzMzMzQgODUuMzMzMzMzQTIxLjIwNjY2NyAyMS4yMDY2NjcgMCAwIDEgNDA1LjMzMzMzMyA5MzguNjY2NjY3ek0xNDkuMzMzMzMzIDEyOGExMC42NjY2NjcgMTAuNjY2NjY3IDAgMCAwLTguNTMzMzMzIDE3LjA2NjY2N2wyODEuNiAzNzUuNDY2NjY2QTIxLjMzMzMzMyAyMS4zMzMzMzMgMCAwIDEgNDI2LjY2NjY2NyA1MzMuMzMzMzMzdjM1Mi40ODY2NjdsMTcwLjY2NjY2Ni02OC4yNjY2NjdWNTMzLjMzMzMzM2EyMS4zMzMzMzMgMjEuMzMzMzMzIDAgMCAxIDQuMjY2NjY3LTEyLjhsMjgxLjYtMzc1LjQ2NjY2NkExMC42NjY2NjcgMTAuNjY2NjY3IDAgMCAwIDg3NC42NjY2NjcgMTI4eiBtNDY5LjMzMzMzNCA3MDR6Ii8+PC9zdmc+;direction=north;" parent="1" vertex="1">
          <mxGeometry x="1275" y="520" width="257.71" height="250" as="geometry" />
        </mxCell>
        <mxCell id="l-mb93l43rivfY--omWl-21" value="" style="shadow=0;dashed=0;html=1;strokeColor=none;fillColor=#EF8F21;labelPosition=center;verticalLabelPosition=bottom;verticalAlign=top;align=center;outlineConnect=0;shape=mxgraph.veeam.failed;" parent="1" vertex="1">
          <mxGeometry x="1266.25" y="630" width="28" height="29" as="geometry" />
        </mxCell>
        <mxCell id="l-mb93l43rivfY--omWl-22" style="edgeStyle=orthogonalEdgeStyle;rounded=0;orthogonalLoop=1;jettySize=auto;html=1;entryX=0;entryY=0.5;entryDx=0;entryDy=0;" parent="1" source="l-mb93l43rivfY--omWl-6" target="m6qukWwzKQYq0JH5p8_a-3" edge="1">
          <mxGeometry relative="1" as="geometry">
            <mxPoint x="1267" y="574.5050000000001" as="targetPoint" />
          </mxGeometry>
        </mxCell>
        <mxCell id="l-mb93l43rivfY--omWl-23" style="edgeStyle=orthogonalEdgeStyle;rounded=0;orthogonalLoop=1;jettySize=auto;html=1;" parent="1" source="l-mb93l43rivfY--omWl-7" target="l-mb93l43rivfY--omWl-21" edge="1">
          <mxGeometry relative="1" as="geometry" />
        </mxCell>
        <mxCell id="l-mb93l43rivfY--omWl-25" style="edgeStyle=orthogonalEdgeStyle;rounded=0;orthogonalLoop=1;jettySize=auto;html=1;entryX=0;entryY=0.5;entryDx=0;entryDy=0;" parent="1" source="l-mb93l43rivfY--omWl-8" target="m6qukWwzKQYq0JH5p8_a-5" edge="1">
          <mxGeometry relative="1" as="geometry">
            <mxPoint x="1266.25" y="714.5050000000001" as="targetPoint" />
          </mxGeometry>
        </mxCell>
        <mxCell id="l-mb93l43rivfY--omWl-26" value="" style="endArrow=none;dashed=1;html=1;dashPattern=1 3;strokeWidth=2;rounded=0;" parent="1" edge="1">
          <mxGeometry width="50" height="50" relative="1" as="geometry">
            <mxPoint x="1590" y="735" as="sourcePoint" />
            <mxPoint x="1590" y="555" as="targetPoint" />
          </mxGeometry>
        </mxCell>
        <mxCell id="l-mb93l43rivfY--omWl-27" style="edgeStyle=orthogonalEdgeStyle;rounded=0;orthogonalLoop=1;jettySize=auto;html=1;" parent="1" source="l-mb93l43rivfY--omWl-28" target="l-mb93l43rivfY--omWl-30" edge="1">
          <mxGeometry relative="1" as="geometry" />
        </mxCell>
        <mxCell id="l-mb93l43rivfY--omWl-28" value="" style="sketch=0;outlineConnect=0;fontColor=#232F3E;gradientColor=none;fillColor=#E7157B;strokeColor=none;dashed=0;verticalLabelPosition=bottom;verticalAlign=top;align=center;html=1;fontSize=12;fontStyle=0;aspect=fixed;pointerEvents=1;shape=mxgraph.aws4.event;" parent="1" vertex="1">
          <mxGeometry x="1660.75" y="667.1300000000001" width="49" height="49" as="geometry" />
        </mxCell>
        <mxCell id="l-mb93l43rivfY--omWl-29" style="edgeStyle=orthogonalEdgeStyle;rounded=0;orthogonalLoop=1;jettySize=auto;html=1;" parent="1" source="l-mb93l43rivfY--omWl-30" target="l-mb93l43rivfY--omWl-34" edge="1">
          <mxGeometry relative="1" as="geometry">
            <Array as="points">
              <mxPoint x="1840" y="692" />
              <mxPoint x="1840" y="660" />
            </Array>
          </mxGeometry>
        </mxCell>
        <mxCell id="l-mb93l43rivfY--omWl-30" value="" style="sketch=0;outlineConnect=0;fontColor=#ffffff;fillColor=#0050ef;strokeColor=#001DBC;dashed=0;verticalLabelPosition=bottom;verticalAlign=top;align=center;html=1;fontSize=12;fontStyle=0;aspect=fixed;pointerEvents=1;shape=mxgraph.aws4.event;direction=south;" parent="1" vertex="1">
          <mxGeometry x="1760.25" y="667.1300000000001" width="49" height="49" as="geometry" />
        </mxCell>
        <mxCell id="l-mb93l43rivfY--omWl-31" value="" style="edgeStyle=elbowEdgeStyle;elbow=horizontal;endArrow=classic;html=1;curved=0;rounded=0;endSize=8;startSize=8;exitX=1;exitY=0.5;exitDx=0;exitDy=0;entryX=0.44;entryY=0.834;entryDx=0;entryDy=0;entryPerimeter=0;" parent="1" source="m6qukWwzKQYq0JH5p8_a-5" target="l-mb93l43rivfY--omWl-19" edge="1">
          <mxGeometry width="50" height="50" relative="1" as="geometry">
            <mxPoint x="1293.5" y="714.5050000000001" as="sourcePoint" />
            <mxPoint x="1350" y="650.88" as="targetPoint" />
            <Array as="points">
              <mxPoint x="1320" y="690" />
            </Array>
          </mxGeometry>
        </mxCell>
        <mxCell id="l-mb93l43rivfY--omWl-32" value="" style="edgeStyle=elbowEdgeStyle;elbow=horizontal;endArrow=classic;html=1;curved=0;rounded=0;endSize=8;startSize=8;exitX=1;exitY=0.5;exitDx=0;exitDy=0;entryX=0.44;entryY=0.834;entryDx=0;entryDy=0;entryPerimeter=0;" parent="1" source="m6qukWwzKQYq0JH5p8_a-3" edge="1">
          <mxGeometry width="50" height="50" relative="1" as="geometry">
            <mxPoint x="1294.25" y="574.5050000000001" as="sourcePoint" />
            <mxPoint x="1471" y="635" as="targetPoint" />
            <Array as="points">
              <mxPoint x="1320" y="610" />
            </Array>
          </mxGeometry>
        </mxCell>
        <mxCell id="l-mb93l43rivfY--omWl-33" value="" style="endArrow=none;dashed=1;html=1;dashPattern=1 3;strokeWidth=2;rounded=0;" parent="1" edge="1">
          <mxGeometry width="50" height="50" relative="1" as="geometry">
            <mxPoint x="1870" y="735" as="sourcePoint" />
            <mxPoint x="1870" y="555" as="targetPoint" />
          </mxGeometry>
        </mxCell>
        <mxCell id="l-mb93l43rivfY--omWl-34" value="" style="shape=image;verticalLabelPosition=bottom;labelBackgroundColor=default;verticalAlign=top;aspect=fixed;imageAspect=0;editableCssRules=.*;image=data:image/svg+xml,PHN2ZyB4bWxuczp4bGluaz0iaHR0cDovL3d3dy53My5vcmcvMTk5OS94bGluayIgeG1sbnM9Imh0dHA6Ly93d3cudzMub3JnLzIwMDAvc3ZnIiBoZWlnaHQ9IjE5OC41MzQ1MzYzNjE2OTQzNCIgd2lkdGg9IjE5OC42MTE3OTU5MDIyNTIyIiB2ZXJzaW9uPSIxLjEiIHZpZXdCb3g9IjAuMDA2NDIyOTc0MTY5MjU0MzAzIDAuMDc1MjcyMDM4NTc4OTg3MTIgMTAxNi44OTIzOTUwMTk1MzEyIDEwMTYuNDk2ODI2MTcxODc1IiBjbGFzcz0iaWNvbiI+PHBhdGggZmlsbD0iI2Q0MjM3YSIgZD0iTTEwMTYuNDY1MzcgNDEuNjkxTDkxMS4xMzkzNyA3OTMuOTY2YTM4LjI1NCAzOC4yNTQgMCAwIDEtMTUuOTQ1IDI1Ljg5MiAzNy41MjIgMzcuNTIyIDAgMCAxLTI5LjY5NiA1LjQxM0w0NTQuMjg3MzcgNzI3LjA0bC00LjQ2MSAxNTcuOTg5IDg3Ljk5LTczLjg3NWMxNC4zMzctMTMuMjM5IDM1LjE4Mi0xNS4yMTMgNDkuNDQ1LTQuMDk2IDE4LjQzMiAxNC4xMTcgMTkuNTMgNDEuMDMzIDIuNzggNTYuNjg2bC0xNTEuNjk5IDE0Mi45OTRhMzYuNDI1IDM2LjQyNSAwIDAgMS0zOS45MzYgNi41ODMgMzcuMTU3IDM3LjE1NyAwIDAgMS0yMi41MjgtMzQuMTU4VjY3OC41NDZjMC0xMC45NzEgNC4zODktMjAuNyAxMi41MDgtMjcuNzJsMjEzLjU3Ny0yMzkuNjlhMzcuMjMgMzcuMjMgMCAwIDEgNTIuNjYzLTIuNzA2YzE1LjM2IDEzLjY3NyAxNi40NTcgMzcuMzAzIDIuNzA2IDUyLjgwOUw0ODYuOTgzMzcgNjUyLjM2bDM1Mi44NDIgOTAuMTEyIDg4Ljc5NS02MDQuMzA2YTE0LjkyMSAxNC45MjEgMCAwIDAtMjIuMzA5LTE1LjE0TDI4Ny4xNTczNyA0ODIuNTIybC0xNDUuMDQyIDg0LjMzNCAxMzkuOTk1IDQyLjI3N2EzOC4wMzQgMzguMDM0IDAgMCAxIDI5Ljc3IDM5LjY0MyAzNy4wMSAzNy4wMSAwIDAgMS00Ni4wOCAzMi45MTRMMjguMDExMzcgNjIwLjc2M2EzNy4wODMgMzcuMDgzIDAgMCAxLTkuMjktNjguMTY5TDk2MS4wOTYzNyA1LjEyYTM3Ljg4OCAzNy44ODggMCAwIDEgMzkuNTcgMS4wOTdjMTEuNzA0IDcuNDYgMTcuOTk0IDIyLjA5IDE1LjggMzUuNjJ6Ii8+PC9zdmc+;" parent="1" vertex="1">
          <mxGeometry x="1950" y="573.88" width="142.25" height="142.25" as="geometry" />
        </mxCell>
        <mxCell id="l-mb93l43rivfY--omWl-35" value="" style="rounded=0;whiteSpace=wrap;html=1;" parent="1" vertex="1">
          <mxGeometry x="2190" y="490" width="220" height="300" as="geometry" />
        </mxCell>
        <mxCell id="l-mb93l43rivfY--omWl-36" value="&lt;span style=&quot;font-size: 16px;&quot;&gt;Targets&lt;/span&gt;" style="text;html=1;align=center;verticalAlign=middle;resizable=0;points=[];autosize=1;strokeColor=none;fillColor=none;fontStyle=1" parent="1" vertex="1">
          <mxGeometry x="2195" y="443" width="80" height="30" as="geometry" />
        </mxCell>
        <mxCell id="l-mb93l43rivfY--omWl-37" value="" style="ellipse;html=1;strokeWidth=4;fillColor=#10739E;strokeColor=#ffffff;shadow=0;fontSize=10;fontColor=#FFFFFF;align=center;fontStyle=0;whiteSpace=wrap;spacing=10;" parent="1" vertex="1">
          <mxGeometry x="2240" y="561.06" width="70" height="70" as="geometry" />
        </mxCell>
        <mxCell id="l-mb93l43rivfY--omWl-38" value="" style="ellipse;html=1;strokeWidth=4;fillColor=#F2931E;strokeColor=#ffffff;shadow=0;fontSize=10;fontColor=#FFFFFF;align=center;fontStyle=0;whiteSpace=wrap;spacing=10;" parent="1" vertex="1">
          <mxGeometry x="2250" y="571.06" width="50" height="50" as="geometry" />
        </mxCell>
        <mxCell id="l-mb93l43rivfY--omWl-39" value="" style="ellipse;html=1;strokeWidth=4;fillColor=#AE4132;strokeColor=#ffffff;shadow=0;fontSize=10;fontColor=#FFFFFF;align=center;fontStyle=0;whiteSpace=wrap;spacing=10;" parent="1" vertex="1">
          <mxGeometry x="2260" y="581.06" width="30" height="30" as="geometry" />
        </mxCell>
        <mxCell id="l-mb93l43rivfY--omWl-40" value="" style="ellipse;html=1;strokeWidth=4;fillColor=#23445D;strokeColor=#ffffff;shadow=0;fontSize=10;fontColor=#FFFFFF;align=center;fontStyle=0;whiteSpace=wrap;spacing=10;" parent="1" vertex="1">
          <mxGeometry x="2270" y="591.06" width="10" height="10" as="geometry" />
        </mxCell>
        <mxCell id="l-mb93l43rivfY--omWl-41" value="" style="ellipse;html=1;strokeWidth=4;fillColor=#10739E;strokeColor=#ffffff;shadow=0;fontSize=10;fontColor=#FFFFFF;align=center;fontStyle=0;whiteSpace=wrap;spacing=10;" parent="1" vertex="1">
          <mxGeometry x="2240" y="648.94" width="70" height="70" as="geometry" />
        </mxCell>
        <mxCell id="l-mb93l43rivfY--omWl-42" value="" style="ellipse;html=1;strokeWidth=4;fillColor=#F2931E;strokeColor=#ffffff;shadow=0;fontSize=10;fontColor=#FFFFFF;align=center;fontStyle=0;whiteSpace=wrap;spacing=10;" parent="1" vertex="1">
          <mxGeometry x="2250" y="658.94" width="50" height="50" as="geometry" />
        </mxCell>
        <mxCell id="l-mb93l43rivfY--omWl-43" value="" style="ellipse;html=1;strokeWidth=4;fillColor=#AE4132;strokeColor=#ffffff;shadow=0;fontSize=10;fontColor=#FFFFFF;align=center;fontStyle=0;whiteSpace=wrap;spacing=10;" parent="1" vertex="1">
          <mxGeometry x="2260" y="668.94" width="30" height="30" as="geometry" />
        </mxCell>
        <mxCell id="l-mb93l43rivfY--omWl-44" value="" style="ellipse;html=1;strokeWidth=4;fillColor=#23445D;strokeColor=#ffffff;shadow=0;fontSize=10;fontColor=#FFFFFF;align=center;fontStyle=0;whiteSpace=wrap;spacing=10;" parent="1" vertex="1">
          <mxGeometry x="2270" y="678.94" width="10" height="10" as="geometry" />
        </mxCell>
        <mxCell id="l-mb93l43rivfY--omWl-45" value="" style="ellipse;html=1;strokeWidth=4;fillColor=#10739E;strokeColor=#ffffff;shadow=0;fontSize=10;fontColor=#FFFFFF;align=center;fontStyle=0;whiteSpace=wrap;spacing=10;" parent="1" vertex="1">
          <mxGeometry x="2320" y="648.94" width="70" height="70" as="geometry" />
        </mxCell>
        <mxCell id="l-mb93l43rivfY--omWl-46" value="" style="ellipse;html=1;strokeWidth=4;fillColor=#F2931E;strokeColor=#ffffff;shadow=0;fontSize=10;fontColor=#FFFFFF;align=center;fontStyle=0;whiteSpace=wrap;spacing=10;" parent="1" vertex="1">
          <mxGeometry x="2330" y="658.94" width="50" height="50" as="geometry" />
        </mxCell>
        <mxCell id="l-mb93l43rivfY--omWl-47" value="" style="ellipse;html=1;strokeWidth=4;fillColor=#AE4132;strokeColor=#ffffff;shadow=0;fontSize=10;fontColor=#FFFFFF;align=center;fontStyle=0;whiteSpace=wrap;spacing=10;" parent="1" vertex="1">
          <mxGeometry x="2340" y="668.94" width="30" height="30" as="geometry" />
        </mxCell>
        <mxCell id="l-mb93l43rivfY--omWl-48" value="" style="ellipse;html=1;strokeWidth=4;fillColor=#23445D;strokeColor=#ffffff;shadow=0;fontSize=10;fontColor=#FFFFFF;align=center;fontStyle=0;whiteSpace=wrap;spacing=10;" parent="1" vertex="1">
          <mxGeometry x="2350" y="678.94" width="10" height="10" as="geometry" />
        </mxCell>
        <mxCell id="l-mb93l43rivfY--omWl-49" style="edgeStyle=orthogonalEdgeStyle;rounded=0;orthogonalLoop=1;jettySize=auto;html=1;entryX=0;entryY=0.5;entryDx=0;entryDy=0;" parent="1" source="l-mb93l43rivfY--omWl-34" target="l-mb93l43rivfY--omWl-37" edge="1">
          <mxGeometry relative="1" as="geometry">
            <Array as="points">
              <mxPoint x="2210" y="620" />
              <mxPoint x="2210" y="596" />
            </Array>
          </mxGeometry>
        </mxCell>
        <mxCell id="l-mb93l43rivfY--omWl-50" style="edgeStyle=orthogonalEdgeStyle;rounded=0;orthogonalLoop=1;jettySize=auto;html=1;entryX=0;entryY=0.5;entryDx=0;entryDy=0;" parent="1" source="l-mb93l43rivfY--omWl-34" target="l-mb93l43rivfY--omWl-41" edge="1">
          <mxGeometry relative="1" as="geometry">
            <Array as="points">
              <mxPoint x="2210" y="660" />
              <mxPoint x="2210" y="684" />
            </Array>
          </mxGeometry>
        </mxCell>
        <mxCell id="l-mb93l43rivfY--omWl-51" value="Matcher" style="text;html=1;align=center;verticalAlign=middle;resizable=0;points=[];autosize=1;strokeColor=none;fillColor=none;" parent="1" vertex="1">
          <mxGeometry x="1390" y="543.88" width="70" height="30" as="geometry" />
        </mxCell>
        <mxCell id="l-mb93l43rivfY--omWl-52" value="Transformer" style="text;html=1;align=center;verticalAlign=middle;resizable=0;points=[];autosize=1;strokeColor=none;fillColor=none;" parent="1" vertex="1">
          <mxGeometry x="1690" y="535" width="90" height="30" as="geometry" />
        </mxCell>
        <mxCell id="l-mb93l43rivfY--omWl-53" value="Dispatcher" style="text;html=1;align=center;verticalAlign=middle;resizable=0;points=[];autosize=1;strokeColor=none;fillColor=none;" parent="1" vertex="1">
          <mxGeometry x="1981.13" y="535" width="80" height="30" as="geometry" />
        </mxCell>
        <mxCell id="l-mb93l43rivfY--omWl-54" style="edgeStyle=orthogonalEdgeStyle;rounded=0;orthogonalLoop=1;jettySize=auto;html=1;" parent="1" source="l-mb93l43rivfY--omWl-55" target="l-mb93l43rivfY--omWl-56" edge="1">
          <mxGeometry relative="1" as="geometry" />
        </mxCell>
        <mxCell id="l-mb93l43rivfY--omWl-55" value="" style="sketch=0;outlineConnect=0;fontColor=#232F3E;gradientColor=none;fillColor=#E7157B;strokeColor=none;dashed=0;verticalLabelPosition=bottom;verticalAlign=top;align=center;html=1;fontSize=12;fontStyle=0;aspect=fixed;pointerEvents=1;shape=mxgraph.aws4.event;" parent="1" vertex="1">
          <mxGeometry x="1660.75" y="581" width="49" height="49" as="geometry" />
        </mxCell>
        <mxCell id="l-mb93l43rivfY--omWl-56" value="" style="sketch=0;outlineConnect=0;fontColor=#ffffff;fillColor=#0050ef;strokeColor=#001DBC;dashed=0;verticalLabelPosition=bottom;verticalAlign=top;align=center;html=1;fontSize=12;fontStyle=0;aspect=fixed;pointerEvents=1;shape=mxgraph.aws4.event;direction=south;" parent="1" vertex="1">
          <mxGeometry x="1760.25" y="581" width="49" height="49" as="geometry" />
        </mxCell>
        <mxCell id="l-mb93l43rivfY--omWl-57" style="edgeStyle=orthogonalEdgeStyle;rounded=0;orthogonalLoop=1;jettySize=auto;html=1;entryX=0.07;entryY=0.324;entryDx=0;entryDy=0;entryPerimeter=0;" parent="1" source="l-mb93l43rivfY--omWl-56" target="l-mb93l43rivfY--omWl-34" edge="1">
          <mxGeometry relative="1" as="geometry">
            <Array as="points">
              <mxPoint x="1840" y="606" />
              <mxPoint x="1840" y="620" />
            </Array>
          </mxGeometry>
        </mxCell>
        <mxCell id="m6qukWwzKQYq0JH5p8_a-1" value="" style="points=[];aspect=fixed;html=1;align=center;shadow=0;dashed=0;fillColor=#FF6A00;strokeColor=none;shape=mxgraph.alibaba_cloud.webplus_web_app_service;" vertex="1" parent="1">
          <mxGeometry x="955.55" y="457.28000000000003" width="69.45" height="69.45" as="geometry" />
        </mxCell>
        <mxCell id="m6qukWwzKQYq0JH5p8_a-3" value="" style="shape=image;verticalLabelPosition=bottom;labelBackgroundColor=default;verticalAlign=top;aspect=fixed;imageAspect=0;editableCssRules=.*;image=data:image/svg+xml,PHN2ZyB4bWxuczp4bGluaz0iaHR0cDovL3d3dy53My5vcmcvMTk5OS94bGluayIgeG1sbnM9Imh0dHA6Ly93d3cudzMub3JnLzIwMDAvc3ZnIiBoZWlnaHQ9IjE3NSIgd2lkdGg9IjE3NSIgdmVyc2lvbj0iMS4xIiB2aWV3Qm94PSI2NCA2NCA4OTYgODk2IiBjbGFzcz0iaWNvbiI+PHBhdGggZmlsbD0iIzRDQUY1MCIgZD0iTTUxMiA1MTJtLTQ0OCAwYTQ0OCA0NDggMCAxIDAgODk2IDAgNDQ4IDQ0OCAwIDEgMC04OTYgMFoiLz48cGF0aCBmaWxsPSIjQ0NGRjkwIiBkPSJNNzM4LjEzMzMzMyAzMTEuNDY2NjY3TDQ0OCA2MDEuNmwtMTE5LjQ2NjY2Ny0xMTkuNDY2NjY3LTU5LjczMzMzMyA1OS43MzMzMzQgMTc5LjIgMTc5LjIgMzQ5Ljg2NjY2Ny0zNDkuODY2NjY3eiIvPjwvc3ZnPg==;" vertex="1" parent="1">
          <mxGeometry x="1266.88" y="561.06" width="25.99" height="25.99" as="geometry" />
        </mxCell>
        <mxCell id="m6qukWwzKQYq0JH5p8_a-5" value="" style="shape=image;verticalLabelPosition=bottom;labelBackgroundColor=default;verticalAlign=top;aspect=fixed;imageAspect=0;editableCssRules=.*;image=data:image/svg+xml,PHN2ZyB4bWxuczp4bGluaz0iaHR0cDovL3d3dy53My5vcmcvMTk5OS94bGluayIgeG1sbnM9Imh0dHA6Ly93d3cudzMub3JnLzIwMDAvc3ZnIiBoZWlnaHQ9IjE3NSIgd2lkdGg9IjE3NSIgdmVyc2lvbj0iMS4xIiB2aWV3Qm94PSI2NCA2NCA4OTYgODk2IiBjbGFzcz0iaWNvbiI+PHBhdGggZmlsbD0iIzRDQUY1MCIgZD0iTTUxMiA1MTJtLTQ0OCAwYTQ0OCA0NDggMCAxIDAgODk2IDAgNDQ4IDQ0OCAwIDEgMC04OTYgMFoiLz48cGF0aCBmaWxsPSIjQ0NGRjkwIiBkPSJNNzM4LjEzMzMzMyAzMTEuNDY2NjY3TDQ0OCA2MDEuNmwtMTE5LjQ2NjY2Ny0xMTkuNDY2NjY3LTU5LjczMzMzMyA1OS43MzMzMzQgMTc5LjIgMTc5LjIgMzQ5Ljg2NjY2Ny0zNDkuODY2NjY3eiIvPjwvc3ZnPg==;" vertex="1" parent="1">
          <mxGeometry x="1266.88" y="701.51" width="25.99" height="25.99" as="geometry" />
        </mxCell>
      </root>
    </mxGraphModel>
  </diagram>
</mxfile>
